<?xml version="1.0" encoding="UTF-8" ?>
<!DOCTYPE svg PUBLIC "-//W3C//DTD SVG 1.1//EN" "http://www.w3.org/Graphics/SVG/1.1/DTD/svg11.dtd">
<svg width="301pt" height="310pt" viewBox="0 0 301 310" version="1.1" xmlns="http://www.w3.org/2000/svg">
<path fill="#ffffff" d=" M 0.00 0.00 L 1.00 0.00 C 1.01 33.33 0.97 66.66 1.02 99.99 C 23.60 100.02 46.18 99.99 68.76 100.00 C 68.77 101.65 68.83 103.30 68.94 104.96 C 67.47 104.98 66.00 105.01 64.53 105.03 C 64.48 138.35 64.48 171.67 64.53 204.98 C 80.51 205.01 96.49 205.01 112.47 204.98 C 112.52 190.96 112.54 176.93 112.45 162.91 C 116.87 164.92 121.40 166.69 125.99 168.29 C 126.03 180.52 125.96 192.75 126.02 204.99 C 142.01 205.01 158.00 205.02 173.98 204.98 C 174.03 197.95 173.99 190.92 174.00 183.89 C 179.40 186.29 184.71 188.96 189.55 192.38 C 189.48 196.58 189.46 200.78 189.54 204.99 C 193.67 205.02 197.80 204.99 201.93 205.00 C 202.88 206.61 203.74 208.28 204.53 209.98 C 188.36 210.03 172.19 209.96 156.02 210.02 C 155.97 232.47 156.03 254.93 155.99 277.38 C 152.97 277.11 149.97 276.65 147.00 276.05 C 146.98 254.04 147.03 232.03 146.98 210.02 C 130.99 209.99 115.01 209.99 99.02 210.02 C 98.97 223.41 99.03 236.80 98.99 250.20 C 95.30 246.97 91.74 243.61 88.36 240.06 C 88.64 230.05 88.47 220.03 88.47 210.02 C 59.32 209.98 30.17 209.99 1.02 210.02 C 1.01 243.35 0.95 276.67 1.05 310.00 L 0.00 310.00 L 0.00 157.16 C 0.26 157.41 0.79 157.91 1.05 158.16 C 0.95 173.77 1.00 189.38 1.02 204.99 C 17.01 205.01 33.00 205.02 48.99 204.98 C 49.01 202.62 49.00 200.26 48.99 197.90 C 50.25 196.97 51.52 196.05 52.78 195.13 C 51.44 193.06 50.16 190.95 48.88 188.84 C 49.07 166.23 49.09 143.62 48.87 121.01 C 50.39 118.58 51.82 116.10 53.34 113.67 C 51.90 112.63 50.44 111.61 48.96 110.62 C 48.98 108.75 48.99 106.89 49.00 105.02 C 33.01 104.98 17.01 104.99 1.02 105.02 C 0.98 120.88 1.00 136.73 1.01 152.59 C 0.76 152.88 0.25 153.46 0.00 153.75 L 0.00 0.00 Z" />
<path fill="#b7b7b7" d=" M 1.00 0.00 L 89.86 0.00 C 90.20 15.91 89.86 31.83 90.04 47.74 C 76.23 61.34 68.65 80.68 68.76 100.00 C 46.18 99.99 23.60 100.02 1.02 99.99 C 0.97 66.66 1.01 33.33 1.00 0.00 Z" />
<path fill="#ffffff" d=" M 89.86 0.00 L 211.50 0.00 C 211.50 16.17 211.50 32.35 211.50 48.52 C 209.10 41.62 206.55 34.77 204.14 27.87 C 201.29 29.44 198.38 30.87 195.49 32.35 C 195.49 21.90 195.54 11.46 195.47 1.02 C 165.82 0.99 136.18 0.99 106.53 1.02 C 106.49 12.53 106.45 24.05 106.56 35.56 C 100.49 38.77 94.87 42.86 90.04 47.74 C 89.86 31.83 90.20 15.91 89.86 0.00 Z" />
<path fill="#b7b7b7" d=" M 211.50 0.00 L 301.00 0.00 L 301.00 100.26 C 299.67 100.11 298.34 100.02 297.01 99.99 C 271.19 99.97 245.37 100.08 219.55 99.93 C 222.31 98.09 225.09 96.25 227.92 94.49 C 222.59 79.12 216.93 63.86 211.50 48.52 C 211.50 32.35 211.50 16.17 211.50 0.00 Z" />
<path fill="#b7b7b7" d=" M 106.53 1.02 C 136.18 0.99 165.82 0.99 195.47 1.02 C 195.54 11.46 195.49 21.90 195.49 32.35 C 189.88 35.20 183.63 38.38 177.17 36.82 C 166.99 34.65 157.30 30.58 147.08 28.57 C 133.28 26.88 118.92 29.03 106.56 35.56 C 106.45 24.05 106.49 12.53 106.53 1.02 Z" />
<path fill="#ff017f" d=" M 106.56 35.56 C 118.92 29.03 133.28 26.88 147.08 28.57 C 157.30 30.58 166.99 34.65 177.17 36.82 C 183.63 38.38 189.88 35.20 195.49 32.35 C 198.38 30.87 201.29 29.44 204.14 27.87 C 206.55 34.77 209.10 41.62 211.50 48.52 C 216.93 63.86 222.59 79.12 227.92 94.49 C 225.09 96.25 222.31 98.09 219.55 99.93 C 218.29 100.77 217.05 101.65 215.82 102.52 C 214.88 101.26 213.91 100.01 213.05 98.69 C 208.19 90.21 202.08 82.50 195.55 75.23 C 182.21 60.60 165.08 47.98 145.05 45.04 C 131.33 42.80 116.30 46.75 106.60 57.01 C 94.52 69.44 91.71 89.36 98.63 105.04 C 101.66 111.61 106.58 117.21 112.45 121.41 C 116.65 124.51 121.25 127.02 126.00 129.17 C 141.34 135.89 158.02 138.60 173.98 143.45 C 179.24 144.81 184.48 146.35 189.48 148.52 C 204.30 154.75 217.44 165.45 225.52 179.46 C 230.15 187.32 233.06 196.12 234.44 205.12 C 234.67 206.73 234.86 208.35 235.02 209.98 C 236.31 225.83 233.00 242.15 225.08 255.99 C 216.15 271.88 201.21 284.29 183.90 290.02 C 174.96 293.12 165.43 294.17 156.00 293.91 C 152.99 293.85 149.98 293.65 147.01 293.19 C 135.37 291.41 125.29 284.93 114.16 281.59 C 108.93 279.80 103.42 281.79 99.00 284.66 C 95.47 286.87 91.95 289.08 88.45 291.33 C 87.01 292.23 85.56 293.09 84.09 293.93 C 75.87 270.71 67.07 247.69 58.91 224.46 C 62.98 222.48 67.04 220.47 71.06 218.37 C 76.18 226.08 81.95 233.38 88.36 240.06 C 91.74 243.61 95.30 246.97 98.99 250.20 C 112.83 262.12 129.00 272.06 147.00 276.05 C 149.97 276.65 152.97 277.11 155.99 277.38 C 169.30 278.40 183.32 274.45 193.18 265.21 C 208.06 251.60 211.67 228.37 204.53 209.98 C 203.74 208.28 202.88 206.61 201.93 205.00 C 198.80 199.95 194.40 195.77 189.55 192.38 C 184.71 188.96 179.40 186.29 174.00 183.89 C 158.56 177.02 141.87 173.88 125.99 168.29 C 121.40 166.69 116.87 164.92 112.45 162.91 C 97.78 156.33 83.41 146.76 75.86 132.09 C 71.43 123.75 69.52 114.32 68.94 104.96 C 68.83 103.30 68.77 101.65 68.76 100.00 C 68.65 80.68 76.23 61.34 90.04 47.74 C 94.87 42.86 100.49 38.77 106.56 35.56 Z" />
<path fill="#b7b7b7" d=" M 106.60 57.01 C 116.30 46.75 131.33 42.80 145.05 45.04 C 165.08 47.98 182.21 60.60 195.55 75.23 C 195.41 83.82 195.58 92.40 195.47 100.98 C 165.82 101.01 136.18 101.01 106.53 100.98 C 106.52 86.32 106.39 71.66 106.60 57.01 Z" />
<path fill="#ffffff" d=" M 98.63 105.04 C 91.71 89.36 94.52 69.44 106.60 57.01 C 106.39 71.66 106.52 86.32 106.53 100.98 C 136.18 101.01 165.82 101.01 195.47 100.98 C 195.58 92.40 195.41 83.82 195.55 75.23 C 202.08 82.50 208.19 90.21 213.05 98.69 C 213.91 100.01 214.88 101.26 215.82 102.52 C 217.05 101.65 218.29 100.77 219.55 99.93 C 245.37 100.08 271.19 99.97 297.01 99.99 C 298.34 100.02 299.67 100.11 301.00 100.26 L 301.00 105.00 C 284.96 105.03 268.92 104.95 252.89 105.04 C 253.03 106.29 253.19 107.54 253.36 108.79 C 251.19 110.63 248.73 112.08 246.38 113.67 C 248.67 117.21 250.73 120.91 253.10 124.41 C 252.94 144.79 252.93 165.17 253.10 185.55 C 251.14 188.74 249.28 191.98 247.25 195.13 C 249.29 196.61 251.29 198.16 253.16 199.87 C 253.07 201.56 253.01 203.27 252.95 204.97 C 268.97 205.02 284.98 205.02 301.00 204.97 L 301.00 210.00 C 279.01 209.98 257.01 210.03 235.02 209.98 C 234.86 208.35 234.67 206.73 234.44 205.12 C 235.20 205.07 236.71 204.96 237.47 204.91 C 237.52 171.61 237.53 138.31 237.46 105.01 C 221.47 105.02 205.48 104.93 189.50 105.06 C 189.49 119.54 189.53 134.03 189.48 148.52 C 184.48 146.35 179.24 144.81 173.98 143.45 C 174.01 130.64 174.01 117.83 173.98 105.02 C 158.00 104.98 142.01 104.99 126.02 105.02 C 125.97 113.07 126.01 121.12 126.00 129.17 C 121.25 127.02 116.65 124.51 112.45 121.41 C 112.52 115.94 112.54 110.48 112.47 105.01 C 107.85 104.98 103.24 104.98 98.63 105.04 Z" />
<path fill="#b7b7b7" d=" M 1.02 105.02 C 17.01 104.99 33.01 104.98 49.00 105.02 C 48.99 106.89 48.98 108.75 48.96 110.62 C 48.08 110.03 47.20 109.45 46.31 108.87 C 32.23 124.44 16.92 138.90 1.01 152.59 C 1.00 136.73 0.98 120.88 1.02 105.02 Z" />
<path fill="#b7b7b7" d=" M 64.53 105.03 C 66.00 105.01 67.47 104.98 68.94 104.96 C 69.52 114.32 71.43 123.75 75.86 132.09 C 83.41 146.76 97.78 156.33 112.45 162.91 C 112.54 176.93 112.52 190.96 112.47 204.98 C 96.49 205.01 80.51 205.01 64.53 204.98 C 64.48 171.67 64.48 138.35 64.53 105.03 Z" />
<path fill="#b7b7b7" d=" M 98.63 105.04 C 103.24 104.98 107.85 104.98 112.47 105.01 C 112.54 110.48 112.52 115.94 112.45 121.41 C 106.58 117.21 101.66 111.61 98.63 105.04 Z" />
<path fill="#b7b7b7" d=" M 126.02 105.02 C 142.01 104.99 158.00 104.98 173.98 105.02 C 174.01 117.83 174.01 130.64 173.98 143.45 C 158.02 138.60 141.34 135.89 126.00 129.17 C 126.01 121.12 125.97 113.07 126.02 105.02 Z" />
<path fill="#b7b7b7" d=" M 189.50 105.06 C 205.48 104.93 221.47 105.02 237.46 105.01 C 237.53 138.31 237.52 171.61 237.47 204.91 C 236.71 204.96 235.20 205.07 234.44 205.12 C 233.06 196.12 230.15 187.32 225.52 179.46 C 217.44 165.45 204.30 154.75 189.48 148.52 C 189.53 134.03 189.49 119.54 189.50 105.06 Z" />
<path fill="#b7b7b7" d=" M 252.89 105.04 C 268.92 104.95 284.96 105.03 301.00 105.00 L 301.00 204.97 C 284.98 205.02 268.97 205.02 252.95 204.97 C 253.01 203.27 253.07 201.56 253.16 199.87 C 263.09 189.91 273.12 180.04 283.59 170.65 C 288.81 166.13 294.28 161.89 299.51 157.38 C 299.81 156.10 299.66 154.76 299.71 153.46 C 283.38 139.52 267.96 124.52 253.36 108.79 C 253.19 107.54 253.03 106.29 252.89 105.04 Z" />
<path fill="#ff017f" d=" M 46.31 108.87 C 47.20 109.45 48.08 110.03 48.96 110.62 C 50.44 111.61 51.90 112.63 53.34 113.67 C 51.82 116.10 50.39 118.58 48.87 121.01 C 41.32 132.69 32.88 143.82 23.24 153.85 C 32.45 165.01 41.43 176.41 48.88 188.84 C 50.16 190.95 51.44 193.06 52.78 195.13 C 51.52 196.05 50.25 196.97 48.99 197.90 C 48.14 198.53 47.29 199.15 46.44 199.78 C 32.45 184.71 16.83 171.30 1.05 158.16 C 0.79 157.91 0.26 157.41 0.00 157.16 L 0.00 153.75 C 0.25 153.46 0.76 152.88 1.01 152.59 C 16.92 138.90 32.23 124.44 46.31 108.87 Z" />
<path fill="#ff017f" d=" M 253.36 108.79 C 267.96 124.52 283.38 139.52 299.71 153.46 C 299.66 154.76 299.81 156.10 299.51 157.38 C 294.28 161.89 288.81 166.13 283.59 170.65 C 273.12 180.04 263.09 189.91 253.16 199.87 C 251.29 198.16 249.29 196.61 247.25 195.13 C 249.28 191.98 251.14 188.74 253.10 185.55 C 259.93 174.28 268.21 164.01 276.51 153.82 C 267.79 144.79 260.08 134.83 253.10 124.41 C 250.73 120.91 248.67 117.21 246.38 113.67 C 248.73 112.08 251.19 110.63 253.36 108.79 Z" />
<path fill="#b7b7b7" d=" M 23.24 153.85 C 32.88 143.82 41.32 132.69 48.87 121.01 C 49.09 143.62 49.07 166.23 48.88 188.84 C 41.43 176.41 32.45 165.01 23.24 153.85 Z" />
<path fill="#b7b7b7" d=" M 253.10 124.41 C 260.08 134.83 267.79 144.79 276.51 153.82 C 268.21 164.01 259.93 174.28 253.10 185.55 C 252.93 165.17 252.94 144.79 253.10 124.41 Z" />
<path fill="#b7b7b7" d=" M 1.05 158.16 C 16.83 171.30 32.45 184.71 46.44 199.78 C 47.29 199.15 48.14 198.53 48.99 197.90 C 49.00 200.26 49.01 202.62 48.99 204.98 C 33.00 205.02 17.01 205.01 1.02 204.99 C 1.00 189.38 0.95 173.77 1.05 158.16 Z" />
<path fill="#b7b7b7" d=" M 125.99 168.29 C 141.87 173.88 158.56 177.02 174.00 183.89 C 173.99 190.92 174.03 197.95 173.98 204.98 C 158.00 205.02 142.01 205.01 126.02 204.99 C 125.96 192.75 126.03 180.52 125.99 168.29 Z" />
<path fill="#b7b7b7" d=" M 189.55 192.38 C 194.40 195.77 198.80 199.95 201.93 205.00 C 197.80 204.99 193.67 205.02 189.54 204.99 C 189.46 200.78 189.48 196.58 189.55 192.38 Z" />
<path fill="#b7b7b7" d=" M 1.02 210.02 C 30.17 209.99 59.32 209.98 88.47 210.02 C 88.47 220.03 88.64 230.05 88.36 240.06 C 81.95 233.38 76.18 226.08 71.06 218.37 C 67.04 220.47 62.98 222.48 58.91 224.46 C 67.07 247.69 75.87 270.71 84.09 293.93 C 85.56 293.09 87.01 292.23 88.45 291.33 C 88.55 297.55 88.48 303.78 88.50 310.00 L 1.05 310.00 C 0.95 276.67 1.01 243.35 1.02 210.02 Z" />
<path fill="#b7b7b7" d=" M 99.02 210.02 C 115.01 209.99 130.99 209.99 146.98 210.02 C 147.03 232.03 146.98 254.04 147.00 276.05 C 129.00 272.06 112.83 262.12 98.99 250.20 C 99.03 236.80 98.97 223.41 99.02 210.02 Z" />
<path fill="#b7b7b7" d=" M 156.02 210.02 C 172.19 209.96 188.36 210.03 204.53 209.98 C 211.67 228.37 208.06 251.60 193.18 265.21 C 183.32 274.45 169.30 278.40 155.99 277.38 C 156.03 254.93 155.97 232.47 156.02 210.02 Z" />
<path fill="#b7b7b7" d=" M 235.02 209.98 C 257.01 210.03 279.01 209.98 301.00 210.00 L 301.00 310.00 L 155.92 310.00 C 156.07 304.64 155.97 299.27 156.00 293.91 C 165.43 294.17 174.96 293.12 183.90 290.02 C 201.21 284.29 216.15 271.88 225.08 255.99 C 233.00 242.15 236.31 225.83 235.02 209.98 Z" />
<path fill="#b7b7b7" d=" M 99.00 284.66 C 103.42 281.79 108.93 279.80 114.16 281.59 C 125.29 284.93 135.37 291.41 147.01 293.19 C 146.99 298.79 147.00 304.40 147.00 310.00 L 98.78 310.00 C 99.28 301.57 98.86 293.11 99.00 284.66 Z" />
<path fill="#ffffff" d=" M 88.45 291.33 C 91.95 289.08 95.47 286.87 99.00 284.66 C 98.86 293.11 99.28 301.57 98.78 310.00 L 88.50 310.00 C 88.48 303.78 88.55 297.55 88.45 291.33 Z" />
<path fill="#ffffff" d=" M 147.01 293.19 C 149.98 293.65 152.99 293.85 156.00 293.91 C 155.97 299.27 156.07 304.64 155.92 310.00 L 147.00 310.00 C 147.00 304.40 146.99 298.79 147.01 293.19 Z" />
</svg>
